<?xml version="1.0" standalone="no"?>
<!DOCTYPE svg PUBLIC "-//W3C//DTD SVG 20010904//EN"
 "http://www.w3.org/TR/2001/REC-SVG-20010904/DTD/svg10.dtd">
<svg version="1.0" xmlns="http://www.w3.org/2000/svg"
 width="344.000000pt" height="344.000000pt" viewBox="0 0 344.000000 344.000000"
 preserveAspectRatio="xMidYMid meet">
<metadata>
Created by potrace 1.11, written by Peter Selinger 2001-2013
</metadata>
<g transform="translate(0.000000,344.000000) scale(0.100000,-0.100000)"
fill="#000000" stroke="none">
<path d="M0 1720 l0 -1720 114 0 c100 0 115 2 120 18 3 9 22 96 41 192 73 361
93 438 114 449 20 11 59 -3 67 -24 3 -8 -4 -63 -16 -122 -28 -140 -99 -473
-106 -495 -5 -17 37 -18 786 -18 758 0 791 1 786 18 -4 10 3 60 14 112 11 51
20 97 20 100 0 11 44 26 63 22 13 -2 16 -10 13 -25 -3 -12 -3 -16 0 -9 3 6 9
10 13 8 9 -6 -24 -184 -39 -209 -10 -16 12 -17 398 -17 l408 0 16 83 c105 527
125 594 177 580 40 -10 41 -43 10 -185 -30 -135 -99 -466 -99 -474 0 -2 122
-4 270 -4 l270 0 0 1720 0 1720 -1720 0 -1720 0 0 -1720z m2966 753 c-3 -10
-12 -54 -21 -98 -8 -44 -31 -152 -50 -240 -47 -218 -108 -503 -223 -1045 l-8
-35 -474 0 c-506 1 -514 2 -546 50 -30 46 -25 78 102 670 41 187 61 226 139
265 48 24 57 25 288 28 131 2 244 1 252 -2 11 -4 11 -14 0 -58 -7 -29 -20 -92
-30 -140 l-18 -88 -133 0 c-159 0 -165 -3 -183 -101 -6 -35 -23 -120 -38 -187
-22 -105 -24 -125 -12 -133 8 -5 96 -9 196 -9 l181 0 11 48 c6 26 33 155 61
287 55 263 120 569 151 713 l21 92 169 0 c158 0 170 -1 165 -17z m-1377 -550
c-16 -75 -29 -140 -29 -145 0 -4 -128 -8 -283 -8 -258 0 -285 -2 -300 -17 -16
-19 -87 -312 -87 -362 0 -17 6 -31 16 -35 9 -3 137 -6 285 -6 209 0 269 -3
268 -12 0 -7 -13 -74 -28 -148 l-27 -135 -416 0 -416 0 -26 24 c-42 40 -42 84
3 301 120 584 117 575 172 630 16 15 45 32 66 38 22 6 205 10 434 11 l397 1
-29 -137z"/>
</g>
</svg>
